<?xml version="1.0" encoding="utf-8"?>
<!-- Generator: Adobe Illustrator 21.0.2, SVG Export Plug-In . SVG Version: 6.00 Build 0)  -->
<svg version="1.1" xmlns="http://www.w3.org/2000/svg" xmlns:xlink="http://www.w3.org/1999/xlink" x="0px" y="0px"
	 viewBox="0 0 80 80" style="enable-background:new 0 0 80 80;" xml:space="preserve">
<style type="text/css">
	.st0{display:none;}
	.st1{display:inline;}
	.st2{fill:#DDDDDD;}
	.st3{fill:#444444;}
	.st4{fill:#FFFFFF;}
	.st5{fill:#999999;}
</style>
<g id="Layer_1" class="st0">
	<g class="st1">
		<path class="st2" d="M66.8,13.3C59.7,6.2,50.2,2.2,40.1,2.2c-10.1,0-19.6,4-26.9,11.1C-1.5,28-1.5,52.1,13.2,66.9
			c5.4,5.4,13.1,8.9,20.5,10.3c-0.5-2.1-0.8-4.5-0.8-6.6c0-16.6,12.4-29.1,28.8-29.1c5.7,0,11.1,1.5,15.8,4.6
			C79.1,34.4,75.1,21.7,66.8,13.3z"/>
		<path class="st3" d="M22.4,54.4c-2.7,0-5,2.3-5,5c0,2.7,2.3,5,5,5s5-2.3,5-5c0-1.4-0.5-2.6-1.5-3.5C24.9,54.9,23.7,54.4,22.4,54.4
			z"/>
		<path class="st4" d="M24.9,14.6c-2.7,0-5,2.3-5,5s2.3,5,5,5s5-2.3,5-5C29.9,16.9,27.8,14.6,24.9,14.6z"/>
		<path class="st5" d="M19.8,38c0-2.7-2.3-5-5-5s-5,2.3-5,5s2.3,5,5,5S19.8,40.8,19.8,38z"/>
		<path d="M22.4,51.4c-4.4,0-8,3.6-8,8c0,4.4,3.6,8,8,8s8-3.6,8-8c0-2.1-0.8-4.1-2.3-5.6C26.4,52.2,24.5,51.4,22.4,51.4z M22.4,64.3
			c-2.7,0-5-2.3-5-5c0-2.7,2.3-5,5-5c1.4,0,2.6,0.5,3.5,1.5c0.9,0.9,1.5,2.1,1.5,3.5C27.3,62.1,25.1,64.3,22.4,64.3z"/>
		<path d="M22.8,38c0-4.4-3.6-8-8-8s-8,3.6-8,8s3.6,8,8,8S22.8,42.6,22.8,38z M9.9,38c0-2.7,2.3-5,5-5s5,2.3,5,5s-2.3,5-5,5
			S9.9,40.8,9.9,38z"/>
		<path d="M24.9,11.6c-4.4,0-8,3.6-8,8s3.6,8,8,8s8-3.6,8-8C32.9,15.2,29.4,11.6,24.9,11.6z M24.9,24.5c-2.7,0-5-2.3-5-5s2.3-5,5-5
			s5,2.3,5,5C29.9,22.3,27.8,24.5,24.9,24.5z"/>
		<path d="M40.1,0.1c-10.7,0-20.7,4.2-28.4,11.7c-15.6,15.8-15.6,41.1,0,56.7c6.3,6.3,14.3,10.2,23,11.4h0.2c0.5,0,0.9-0.2,1.2-0.6
			c0.3-0.5,0.5-0.9,0.3-1.4c-0.8-2.6-1.2-5.3-1.2-8c0-14.6,11.7-26.4,26.1-26.4c5.7,0,11.1,1.8,15.6,5.3c0.5,0.3,0.9,0.5,1.5,0.2
			c0.5-0.2,0.9-0.6,0.9-1.1c2.6-13.2-1.5-26.6-11-36C60.8,4.3,50.7,0.1,40.1,0.1z M76.9,45.1c-4.7-3-9.9-4.5-15.5-4.5
			c-16.1,0-29.1,13.2-29.1,29.4c0,2.3,0.3,4.4,0.8,6.5c-7.2-1.4-13.8-5-19.1-10.1C-0.5,52-0.5,28.4,14,14c6.9-7.1,16.2-11,26.1-11
			S59.3,7,66.3,13.9C74.4,22.1,78.4,33.7,76.9,45.1z"/>
	</g>
</g>
<g id="레이어_2" class="st0">
	<g class="st1">
		<g>
			<path class="st4" d="M78.6,37.9c0-6-4.9-10.9-10.9-10.9H12.4c-6,0-10.9,4.9-10.9,10.9v13c0,0.1,0,0.1,0,0.2c0,0.1,0,0.1,0,0.2
				v17.6c0,6,4.9,10.9,10.9,10.9h1.3c6,0,10.9-4.9,10.9-10.9V58.2h30.7v10.9c0,6,4.9,10.9,10.9,10.9h1.3c6,0,10.9-4.9,10.9-10.9
				V51.5c0-0.1,0-0.2,0-0.3c0-0.1,0-0.2,0-0.3L78.6,37.9L78.6,37.9z"/>
			<path d="M67.6,30c4.4,0,7.9,3.6,7.9,7.9v13l0,0c0,0.1,0,0.2,0,0.3l0,0.1l0,0.1c0,0.1,0,0.2,0,0.3v17.5c0,4.4-3.6,7.9-7.9,7.9
				h-1.3c-4.4,0-7.9-3.6-7.9-7.9V58.2v-3h-3H24.7h-3v3v10.6c0,4.4-3.6,7.9-7.9,7.9h-1.3c-4.4,0-7.9-3.6-7.9-7.9V51.3
				c0-0.1,0-0.1,0-0.2l0,0l0,0c0-0.1,0-0.1,0-0.2V37.9c0-4.4,3.6-7.9,7.9-7.9H67.6 M67.6,27H12.4c-6,0-10.9,4.9-10.9,10.9v13
				c0,0.1,0,0.1,0,0.2c0,0.1,0,0.1,0,0.2v17.6c0,6,4.9,10.9,10.9,10.9h1.3c6,0,10.9-4.9,10.9-10.9V58.2h30.7v10.9
				c0,6,4.9,10.9,10.9,10.9h1.3c6,0,10.9-4.9,10.9-10.9V51.5c0-0.1,0-0.2,0-0.3c0-0.1,0-0.2,0-0.3v-13h0C78.6,31.9,73.7,27,67.6,27
				L67.6,27z"/>
		</g>
		<g>
			<path class="st4" d="M20.6,39.7h-1.3v-1.3c0-2-1.6-3.6-3.6-3.6c-2,0-3.6,1.6-3.6,3.6v1.3h-1.3c-2,0-3.6,1.6-3.6,3.6
				c0,2,1.6,3.6,3.6,3.6H12v1.3c0,2,1.6,3.6,3.6,3.6c2,0,3.6-1.6,3.6-3.6v-1.3h1.3c2,0,3.6-1.6,3.6-3.6
				C24.2,41.3,22.6,39.7,20.6,39.7z"/>
			<path d="M15.6,37.7c0.4,0,0.6,0.3,0.6,0.6v1.3v3h3h1.3c0.4,0,0.6,0.3,0.6,0.6c0,0.4-0.3,0.6-0.6,0.6h-1.3h-3v3v1.3
				c0,0.4-0.3,0.6-0.6,0.6c-0.4,0-0.6-0.3-0.6-0.6v-1.3v-3h-3h-1.3c-0.4,0-0.6-0.3-0.6-0.6c0-0.4,0.3-0.6,0.6-0.6H12h3v-3v-1.3
				C15,38,15.3,37.7,15.6,37.7 M15.6,34.7c-2,0-3.6,1.6-3.6,3.6v1.3h-1.3c-2,0-3.6,1.6-3.6,3.6c0,2,1.6,3.6,3.6,3.6H12v1.3
				c0,2,1.6,3.6,3.6,3.6c2,0,3.6-1.6,3.6-3.6v-1.3h1.3c2,0,3.6-1.6,3.6-3.6c0-2-1.6-3.6-3.6-3.6h-1.3v-1.3
				C19.3,36.4,17.6,34.7,15.6,34.7L15.6,34.7z"/>
		</g>
		<g>
			<circle class="st4" cx="64.3" cy="36" r="2.8"/>
			<path d="M64.3,33.1c-1.6,0-2.8,1.3-2.8,2.8c0,1.6,1.3,2.8,2.8,2.8c1.6,0,2.8-1.3,2.8-2.8C67.2,34.4,65.9,33.1,64.3,33.1
				L64.3,33.1z"/>
		</g>
		<g>
			<circle class="st4" cx="64.3" cy="49.6" r="2.8"/>
			<path d="M64.3,46.8c-1.6,0-2.8,1.3-2.8,2.8c0,1.6,1.3,2.8,2.8,2.8c1.6,0,2.8-1.3,2.8-2.8C67.2,48,65.9,46.8,64.3,46.8L64.3,46.8z
				"/>
		</g>
		<g>
			<circle class="st4" cx="70.8" cy="42.7" r="2.8"/>
			<path d="M70.8,39.8c-1.6,0-2.8,1.3-2.8,2.8c0,1.6,1.3,2.8,2.8,2.8s2.8-1.3,2.8-2.8C73.6,41.1,72.4,39.8,70.8,39.8L70.8,39.8z"/>
		</g>
		<g>
			<circle class="st4" cx="57.9" cy="42.7" r="2.8"/>
			<path d="M57.9,39.8c-1.6,0-2.8,1.3-2.8,2.8c0,1.6,1.3,2.8,2.8,2.8s2.8-1.3,2.8-2.8C60.7,41.1,59.4,39.8,57.9,39.8L57.9,39.8z"/>
		</g>
		<g>
			<g>
				<path d="M41.2,19.9c0-6.2,0-12.5,0-18.7c0-1.5-2.4-1.5-2.4,0c0,6.2,0,12.5,0,18.7C38.8,21.4,41.2,21.4,41.2,19.9L41.2,19.9z"/>
			</g>
		</g>
		<path d="M35.9,50c0,0.7-0.6,1.2-1.2,1.2h-2.8c-0.7,0-1.2-0.6-1.2-1.2l0,0c0-0.7,0.6-1.2,1.2-1.2h2.8C35.4,48.8,35.9,49.3,35.9,50
			L35.9,50z"/>
		<path d="M47.5,50c0,0.7-0.6,1.2-1.2,1.2h-2.8c-0.7,0-1.2-0.6-1.2-1.2l0,0c0-0.7,0.6-1.2,1.2-1.2h2.8C47,48.8,47.5,49.3,47.5,50
			L47.5,50z"/>
		<g>
			<path class="st4" d="M46.2,28.2H34.4v-7.3c0-1.2,1-2.2,2.2-2.2H44c1.2,0,2.2,1,2.2,2.2V28.2z"/>
			<path d="M43.2,21.7v3.5h-5.8v-3.5H43.2 M44,18.7h-7.4c-1.2,0-2.2,1-2.2,2.2v7.3h11.8v-7.3C46.2,19.6,45.2,18.7,44,18.7L44,18.7z"
				/>
		</g>
	</g>
</g>
<g id="레이어_3">
	<g>
		<path class="st3" d="M1,16v57.1c0,0,8.6-6,21.5-6s12.8,2.2,12.8,2.2s-0.8,4.8,4.4,4.8h0.8c5,0,4.2-4.8,4.2-4.8s0-2.4,12.8-2.4
			S79,73.1,79,73.1V16"/>
		<path class="st4" d="M40,11.4c0,0-15.6-12.6-34.3,0c0,0.4,0,53.1,0,53.1S20,52.9,40,64.5c20-11.6,34.3,0,34.3,0s0-52.5,0-53.1
			C55.6-1,40,11.4,40,11.4z"/>
		<path d="M40,65.5c-0.2,0-0.3,0-0.5-0.1C20.4,54.2,6.8,64.8,6.3,65.3c-0.3,0.2-0.7,0.3-1,0.1c-0.3-0.2-0.6-0.5-0.6-0.9V11.4
			c0-0.3,0.2-0.6,0.4-0.8c17-11.5,31.8-2.6,34.9-0.4c3.1-2.1,17.9-10.9,34.9,0.4c0.3,0.2,0.4,0.5,0.4,0.8v53.1
			c0,0.4-0.2,0.7-0.6,0.9c-0.3,0.2-0.7,0.1-1-0.1c-0.6-0.5-14.1-11-33.2,0.1C40.3,65.4,40.2,65.5,40,65.5z M22.3,58.4
			c5.1,0,11.1,1.3,17.7,5c16.3-9.2,29-3.3,33.4-0.7V12c-17.7-11.4-32.1-0.2-32.8,0.2c-0.4,0.3-0.9,0.3-1.2,0
			C38.8,11.7,24.3,0.4,6.6,12v50.7C9.2,61.1,14.8,58.4,22.3,58.4z"/>
		<path d="M40.5,75.1h-0.8c-1.9,0-3.3-0.6-4.2-1.7c-1.2-1.4-1.2-3.1-1.1-3.9c-0.5-0.3-2.7-1.4-11.8-1.4c-12.5,0-20.9,5.8-21,5.8
			c-0.3,0.2-0.7,0.2-1,0.1C0.2,73.8,0,73.5,0,73.1V16c0-0.5,0.4-1,1-1s1,0.4,1,1v55.3c3.1-1.7,10.5-5.2,20.6-5.2
			c7.5,0,12,0.7,13.3,2.2c0.4,0.5,0.5,0.9,0.4,1.1c0,0.1-0.2,1.7,0.7,2.8c0.6,0.6,1.5,1,2.7,1h0.8c1.2,0,2.1-0.3,2.6-0.9
			c0.9-1.1,0.7-2.7,0.7-2.7c0-0.1,0-0.1,0-0.2c0-1.3,1.8-3.4,13.8-3.4c10,0,17.5,3.6,20.6,5.4V16c0-0.5,0.4-1,1-1s1,0.4,1,1v57.1
			c0,0.4-0.2,0.7-0.5,0.9c-0.3,0.2-0.7,0.1-1-0.1c-0.1-0.1-8.7-6-21-6c-9.2,0-11.4,1.3-11.8,1.6c0.1,0.8,0,2.6-1.1,4
			C43.6,74.6,42.3,75.1,40.5,75.1z M45.6,69.6L45.6,69.6L45.6,69.6z"/>
		<path d="M40,53.1c-0.5,0-1-0.4-1-1v-30c0-0.5,0.4-1,1-1s1,0.4,1,1v30C41,52.6,40.5,53.1,40,53.1z"/>
	</g>
</g>
</svg>
