<?xml version="1.0" encoding="utf-8"?>
<!-- Generator: Adobe Illustrator 21.0.2, SVG Export Plug-In . SVG Version: 6.00 Build 0)  -->
<svg version="1.1"
	 id="svg7296" xmlns:cc="http://creativecommons.org/ns#" xmlns:dc="http://purl.org/dc/elements/1.1/" xmlns:rdf="http://www.w3.org/1999/02/22-rdf-syntax-ns#" xmlns:svg="http://www.w3.org/2000/svg"
	 xmlns="http://www.w3.org/2000/svg" xmlns:xlink="http://www.w3.org/1999/xlink" x="0px" y="0px" viewBox="0 0 500 500"
	 style="enable-background:new 0 0 500 500;" xml:space="preserve">
<style type="text/css">
	.st0{fill:#EAB6AC;}
	.st1{clip-path:url(#SVGID_2_);}
	.st2{fill:#222222;}
	.st3{fill:#FFF2F0;}
	.st4{fill:#FFE0C7;}
	.st5{clip-path:url(#_x32__copy_5_2_);}
	.st6{filter:url(#Adobe_OpacityMaskFilter);}
	.st7{mask:url(#SVGID_3_);}
	.st8{filter:url(#Adobe_OpacityMaskFilter_1_);}
	.st9{mask:url(#SVGID_4_);}
	.st10{fill:none;stroke:#222222;stroke-width:5;stroke-linecap:round;stroke-miterlimit:10;}
</style>
<circle class="st0" cx="250" cy="250" r="250"/>
<g>
	<defs>
		<circle id="SVGID_1_" cx="250" cy="250" r="250"/>
	</defs>
	<clipPath id="SVGID_2_">
		<use xlink:href="#SVGID_1_"  style="overflow:visible;"/>
	</clipPath>
	<g class="st1">
		<path id="back" class="st2" d="M118.2,398.1c-8.1-15.3,18.1-135.7,11.5-195.1c-6.7-59.8,12.1-159.3,130.1-159.3
			c104.1,0,115.7,113.9,113.3,135c-2.8,23.4,20.7,203.3,11.7,223.8S296.7,432,296.7,432l-135-2.8
			C161.7,429.2,126.3,413.5,118.2,398.1z"/>
		<path class="st3" d="M321.5,354.3h-31.7l-8.6-5.1l-4.1,5.1l-0.3-16.2c-27,10.2-54.3-1.3-54.3-1.3v17.5l-3.4-4.8l-8.8,4.8h-25.8
			c-79.9,7.9-78.5,88.4-78.1,97.5h-0.1v61.3H394v-59.6l0.1,0C397.5,357.3,321.5,354.3,321.5,354.3z"/>
		<path id="_x32__copy_5" class="st4" d="M250.3,67.1c53.1,0,95,49.6,93.6,109.2l-1.4,63.3c-1.3,56.1-42.5,100.5-92.2,100.5
			s-90.9-44.4-92.2-100.5l-1.4-63.3C155.4,116.7,197.3,67.1,250.3,67.1z"/>
		<g>
			<defs>
				<path id="_x32__copy_5_1_" d="M250.3,67.1c53.1,0,95,49.6,93.6,109.2l-1.4,63.3c-1.3,56.1-42.5,100.5-92.2,100.5
					s-90.9-44.4-92.2-100.5l-1.4-63.3C155.4,116.7,197.3,67.1,250.3,67.1z"/>
			</defs>
			<clipPath id="_x32__copy_5_2_">
				<use xlink:href="#_x32__copy_5_1_"  style="overflow:visible;"/>
			</clipPath>
			<g class="st5">
				<defs>
					<filter id="Adobe_OpacityMaskFilter" filterUnits="userSpaceOnUse" x="148" y="214.3" width="67.4" height="85">
						<feFlood  style="flood-color:white;flood-opacity:1" result="back"/>
						<feBlend  in="SourceGraphic" in2="back" mode="normal"/>
					</filter>
				</defs>
				<mask maskUnits="userSpaceOnUse" x="148" y="214.3" width="67.4" height="85" id="SVGID_3_">
					<g class="st6">
						<image style="overflow:visible;" width="72" height="90" xlink:href="E5016EC7.jpg"  transform="matrix(1 0 0 1 146 212)">
						</image>
					</g>
				</mask>
				<g class="st7">
					<path class="st0" d="M172.9,214.3c-9.3,0-17.8,3-24.8,8l0.4,15.3c0.5,22.6,6.8,43.6,17.3,61.1c2.3,0.4,4.7,0.6,7.2,0.6
						c23.5,0,42.5-19,42.5-42.5S196.3,214.3,172.9,214.3z"/>
				</g>
			</g>
			<g class="st5">
				<defs>
					<filter id="Adobe_OpacityMaskFilter_1_" filterUnits="userSpaceOnUse" x="284.5" y="214.3" width="67.4" height="85">
						<feFlood  style="flood-color:white;flood-opacity:1" result="back"/>
						<feBlend  in="SourceGraphic" in2="back" mode="normal"/>
					</filter>
				</defs>
				<mask maskUnits="userSpaceOnUse" x="284.5" y="214.3" width="67.4" height="85" id="SVGID_4_">
					<g class="st8">
						<image style="overflow:visible;" width="72" height="90" xlink:href="E5016EC2.jpg"  transform="matrix(1 0 0 1 282 212)">
						</image>
					</g>
				</mask>
				<g class="st9">
					<path class="st0" d="M327,214.3c9.3,0,17.8,3,24.8,8l-0.4,15.3c-0.5,22.6-6.8,43.6-17.3,61.1c-2.3,0.4-4.7,0.6-7.2,0.6
						c-23.5,0-42.5-19-42.5-42.5S303.6,214.3,327,214.3z"/>
				</g>
			</g>
		</g>
		<path id="Shape_11_copy" class="st4" d="M150.9,184c0,0-1-0.8-3-1.4c-1-0.3-2.2-0.6-3.6-0.6c-0.3,0-0.7,0-1.1,0s-0.7,0-1.1,0.1
			c-0.8,0.1-1.5,0.2-2.3,0.5c-3.2,0.9-6.4,3.1-8.3,7.7c-0.9,2.3-1.6,5.1-1.7,8.7c0,0.9-0.1,1.8,0,2.8c0,1,0.1,2,0.1,3.1
			c0.2,2.2,0.5,4.5,0.9,7.1c0,0-0.4,7.8,2.4,16.7c2.6,8.7,8.9,19.5,20.5,22.5C152.4,228.9,152.3,206.3,150.9,184L150.9,184z"/>
		<path id="Shape_3" class="st2" d="M153.3,184.9c0,0-20.2-6.3-19.5,14.5c0,0,3,30.1,4.3,32.8c0,0,7.9,17.5,21,18.3
			c12.8,0.8,0,0,0,0l0.2,5.6c0,0-23-2.9-27.4-29.4l-3.5-24.1c0,0-2.7-31.8,23.7-23.7c25.7,7.9,0,0,0,0L153.3,184.9"/>
		<path id="Shape_4" class="st2" d="M146.6,226.7c0,0-1.1,0.9-2.1,0.9s-2.1-0.9-2.1-0.9l-2.1-21c0,0,2.9-10.3,15.1-4.9l0.3,6
			c0,0-10.7-3.8-10.5,0.9C145.4,212.3,146.6,226.7,146.6,226.7z"/>
		<path id="Shape_11_copy_x5F_1" class="st4" d="M347.9,184c0,0,1.1-0.8,3-1.4c1-0.3,2.2-0.6,3.6-0.6c0.3,0,0.7,0,1.1,0
			c0.4,0,0.7,0,1.1,0.1c0.8,0.1,1.5,0.2,2.3,0.5c3.2,0.9,6.4,3.1,8.3,7.6c1,2.3,1.6,5.1,1.7,8.7c0,0.9,0.1,1.8,0,2.8
			c0,1-0.1,2-0.1,3.1c-0.2,2.2-0.5,4.5-0.9,7.1c0,0,0.4,7.8-2.4,16.7c-2.6,8.7-8.9,19.4-20.6,22.5
			C346.5,228.9,346.5,206.3,347.9,184L347.9,184z"/>
		<path id="Shape_3_x5F_1" class="st2" d="M346.6,184.9c0,0,20.3-6.2,19.6,14.5c0,0-3,30.1-4.3,32.8c0,0-8,17.5-21.1,18.3
			c-12.8,0.8,0,0,0,0l-0.2,5.6c0,0,23.1-2.9,27.5-29.4l3.5-24c0,0,2.7-31.8-23.8-23.7c-25.8,7.9,0,0,0,0L346.6,184.9"/>
		<path id="Shape_4_x5F_1" class="st2" d="M353.3,226.7c0,0,1.1,0.9,2.1,0.9s2.1-0.9,2.1-0.9l2.1-21c0,0-2.9-10.3-15.1-4.9l-0.3,6
			c0,0,10.7-3.8,10.5,0.9C354.5,212.3,353.3,226.7,353.3,226.7z"/>
		<path id="new_vector_shape_done" class="st2" d="M258,230c0.5,0,1,0,1.5,0c3.1,4.2,4.3,10.6,6,16.2c0.5,1.7,0,4.8-0.4,6
			c-1.6,4.5-6.7,4.4-10.9,6.4c-1.1,0.5-2,1.5-3.4,1.7c-0.9-0.8-2.1-1-2.6-2.3c-1.2-1.6,0.3-2.6,1.5-3.2c2.1-1.1,8.6-2.2,9.4-4.3
			c1-1.1,0.3-4.4,0-5.5c-0.8-3-1.2-5.4-2.3-8.1c-0.7-1.8-2.1-3.6-1.3-5.8C256.1,230.8,257.5,230.5,258,230z"/>
		<path id="oko" class="st2" d="M203.2,200.1c6.2,0,11.2,5,11.2,11.2c0,6.2-5,11.2-11.2,11.2c-6.2,0-11.2-5-11.2-11.2
			C192,205.1,197,200.1,203.2,200.1z"/>
		<path id="L_1_" class="st2" d="M222.1,192.8c0,0-25.2-4.9-46,2.7l-2,1.1c0,0,7.4-13.6,39.9-13.6c2.4,0,8.4,0.4,9.1,1.8
			C223.3,186.7,222.1,192.8,222.1,192.8z"/>
		<path id="oko_2_" class="st2" d="M309.3,211.3c0,6.2-5,11.2-11.2,11.2c-6.2,0-11.2-5-11.2-11.2c0-6.2,5-11.2,11.2-11.2
			C304.2,200.1,309.3,205.1,309.3,211.3z"/>
		<path id="L_3_" class="st2" d="M278.1,184.8c0.8-1.4,6.8-1.8,9.1-1.8c32.5,0,39.9,13.6,39.9,13.6l-2-1.1c-20.8-7.6-46-2.7-46-2.7
			S278,186.7,278.1,184.8z"/>
		<path id="Shape_26_2_" class="st2" d="M348.2,124.3l-26.7-41.5l-29-15.7l-49.8-8.3l-42.9,11.8L149.3,123l7.9,65.3
			c0,0,12.8-9.2,32.3-29.2c18.1-18.7,33.3-40.3,33.3-40.3s23,24.2,53.3,33.2c58.9,17.5,64.7,50.9,67.5,56c0.3,0.6,0.4-24.3,0.4-24.3
			L348.2,124.3z"/>
		<path id="Rounded_Rectangle_13_copy_4" class="st2" d="M102.4,516.3l1.4-83.5c2.7-45.9,38.9-81,80.3-81h28.5
			c-1.8,1.5-3.2,3.1-4.2,4.7h-21.8c-39.9,0-74.8,33.7-77.4,78l-1,76.3h283.4l-0.5-76.3c-2.6-44.2-37.5-78-77.4-78h-21.8
			c-0.8-1.6-2-3.2-3.7-4.7H316c41.4,0,77.6,35.1,80.3,81l1.4,83.5H102.4z M279.8,356.4h-1.5v-4.7h1.7
			C279.8,352.9,279.8,354.5,279.8,356.4z M219.8,351.7h1.8v4.7H220C220,354.4,219.9,352.9,219.8,351.7z"/>
		<path id="Ellipse_5" class="st2" d="M263.3,417c1.6,0,3,1.3,3,3c0,1.6-1.3,3-3,3c-1.6,0-3-1.3-3-3
			C260.4,418.3,261.7,417,263.3,417z"/>
		<path id="Ellipse_5_copy" class="st2" d="M263.3,436.6c1.6,0,3,1.3,3,3c0,1.6-1.3,3-3,3c-1.6,0-3-1.3-3-3
			C260.4,438,261.7,436.6,263.3,436.6z"/>
		<g>
			<path class="st10" d="M219,281.5c0,0,7.8,12.3,32.7,12.3"/>
			<path class="st10" d="M251.6,293.8c24.8,0,32.7-12.3,32.7-12.3"/>
		</g>
		<path class="st4" d="M223.6,339.2V369c0,0,1.6,11.1,6.3,15.5s20.1,10.7,20.1,10.7s11.9-3.7,17.9-8.4s10.1-11.8,10-17.6
			s0-31.5,0-31.5s-16.5,4.1-26.1,3.4C242.1,340.2,223.6,339.2,223.6,339.2z"/>
		<path id="Shape_2_copy_9" class="st2" d="M297.9,376.9l-21.8,32.4c-5.9-18.3-23-11.5-23-11.5V452c0,1.4-1.3,2.6-3,2.6
			s-3-1.1-3-2.6v-54.2c-0.1-0.1-17.1-6.8-23,11.5l-21.7-32.4c0,0-8.4-21.4,17-30.7c0-9.3,0-9.8,0-9.8h4.8c0,0,0,17.8,0,30.9
			c0.6,5.3,4.3,20.5,25.9,25.4c21.6-5,25.3-20.1,25.9-25.4c0-13.1,0-30.9,0-30.9h4.8c0,0,0,0.5,0,9.8
			C306.3,355.5,297.9,376.9,297.9,376.9z M223.9,379.8c-1.2-1.3-2.8-4.6-2.8-4.6s-1.6-5.3-1.6-7.7c0-2.9,0-6.7,0-10.8
			c-0.4-4.9-1.3-5-1.3-5c-19,9.4-10.7,23.9-10.7,23.9l15.8,24.7c6.2-10.4,12.8-8.5,12.8-8.5C230.2,388.9,226.4,384.2,223.9,379.8z
			 M282.1,351.7c0,0-0.9,0.1-1.3,5c0,4.1,0,7.9,0,10.8c0,2.3-1.6,7.7-1.6,7.7s-1.7,3.3-2.8,4.6c-2.5,4.5-6.3,9.1-12.2,12.1
			c0,0,6.6-1.9,12.8,8.5l15.8-24.7C292.8,375.6,301.1,361.1,282.1,351.7z"/>
		<path id="_x32__line" class="st2" d="M348.2,174.4l-1.5,65.9c-1.3,58.4-44.6,104.6-96.6,104.6s-95.2-46.2-96.6-104.6l-1.5-65.9
			c-1.4-62,42.5-113.6,98.1-113.6S349.6,112.4,348.2,174.4z M249.9,67.6c-52.4,0-93.7,49.2-92.3,108.3l1.4,62.8
			c1.3,55.7,42,99.7,90.9,99.7s89.6-44,90.9-99.7l1.4-62.8C343.6,116.8,302.3,67.6,249.9,67.6z"/>
	</g>
</g>
</svg>
