<?xml version="1.0" encoding="utf-8"?>
<!-- Generator: Adobe Illustrator 21.0.2, SVG Export Plug-In . SVG Version: 6.00 Build 0)  -->
<svg version="1.1" id="svg" xmlns="http://www.w3.org/2000/svg" xmlns:xlink="http://www.w3.org/1999/xlink" x="0px" y="0px"
	 viewBox="0 0 191.3 189.8" style="enable-background:new 0 0 191.3 189.8;" xml:space="preserve">
<style type="text/css">
	.st0{fill:#FFFFFF;}
</style>
<path class="st0" d="M190,31.9c-0.1-0.2-5.6,5-12.3,11.6S165.3,55.4,165,55.4c-0.6,0-22.8-5.8-23.1-6.1c-0.1-0.1-2-6.8-4.6-16.6
	l-1.8-6.8l12.2-12.2c12-12,12.2-12.2,11.2-12.6c-3.6-1.4-14-1.6-19.4-0.4c-23.2,5-38.4,28-33.4,50.6l0.7,3.1l-51.4,51.2l-0.4-0.1
	C33.7,98.6,8.9,112,1.9,134.1c-2.2,7.1-2.5,20.6-0.5,23.8c0.1,0.2,5.6-5,12.3-11.6s12.4-11.9,12.7-11.9c0.6,0,22.8,5.8,23.1,6.1
	c0.1,0.1,2,6.8,4.6,16.6l1.8,6.8L43.6,176c-12,12-12.2,12.2-11.2,12.6c3.6,1.4,14,1.6,19.4,0.4c23.2-5,38.4-28,33.4-50.6l-0.7-3.1
	L136,84.2l0.4,0.1c21.3,6.9,46.1-6.5,53.1-28.6C191.7,48.7,192,35.2,190,31.9z"/>
</svg>
